<?xml version="1.0" encoding="UTF-8" standalone="no"?>
<svg
   xmlns:dc="http://purl.org/dc/elements/1.1/"
   xmlns:cc="http://creativecommons.org/ns#"
   xmlns:rdf="http://www.w3.org/1999/02/22-rdf-syntax-ns#"
   xmlns:svg="http://www.w3.org/2000/svg"
   xmlns="http://www.w3.org/2000/svg"
   xmlns:sodipodi="http://sodipodi.sourceforge.net/DTD/sodipodi-0.dtd"
   xmlns:inkscape="http://www.inkscape.org/namespaces/inkscape"
   sodipodi:docname="xlogo.svg"
   inkscape:version="1.0 (4035a4fb49, 2020-05-01)"
   width="400mm"
   height="400mm"
   viewBox="0 0 400 400"
   version="1.1"
   id="SVGRoot">
  <defs
     id="defs833">
    <clipPath
       id="clipPath1569"
       clipPathUnits="userSpaceOnUse">
      <path
         d="m 49.187695,198.99974 v 2.00039 H 162.7265 c -0.17637,-0.22194 -0.29779,-0.37749 -0.60358,-0.75499 0.23689,-0.32008 0.46008,-0.65155 0.68471,-0.98185 0.0308,-0.0923 0.075,-0.17991 0.12868,-0.26355 z m 188.487205,0 c 0.0951,0.3888 0.0362,0.79894 -0.18346,1.16168 0.26416,0.0619 0.52201,0.13259 0.57258,0.14831 0.17925,0.16613 0.58945,0.25976 0.53795,0.49868 -0.0153,0.0713 -0.0326,0.12638 -0.0486,0.19172 h 112.25929 v -2.00039 z m -74.55979,1.68051 c -0.44545,0.0173 -0.28007,0.14267 0.16226,0.31988 h 0.31316 c 0.0119,-0.0244 0.0269,-0.0472 0.0393,-0.0713 -0.10456,-0.081 -0.20197,-0.16299 -0.29249,-0.2434 -0.07,-0.001 -0.16924,-0.007 -0.2222,-0.005 z"
         style="fill:#ff0000;fill-opacity:1;fill-rule:nonzero;stroke:none;stroke-width:0.264583"
         id="path1571" />
    </clipPath>
  </defs>
  <sodipodi:namedview
     inkscape:window-maximized="1"
     inkscape:window-y="-8"
     inkscape:window-x="-8"
     inkscape:window-height="1017"
     inkscape:window-width="1920"
     showgrid="false"
     inkscape:document-rotation="0"
     inkscape:current-layer="layer1"
     inkscape:document-units="mm"
     inkscape:cy="990.18481"
     inkscape:cx="1399.3613"
     inkscape:zoom="0.35"
     inkscape:pageshadow="2"
     inkscape:pageopacity="0.0"
     borderopacity="1.0"
     bordercolor="#666666"
     pagecolor="#ffffff"
     id="base" />
  <metadata
     id="metadata836">
    <rdf:RDF>
      <cc:Work
         rdf:about="">
        <dc:format>image/svg+xml</dc:format>
        <dc:type
           rdf:resource="http://purl.org/dc/dcmitype/StillImage" />
        <dc:title></dc:title>
      </cc:Work>
    </rdf:RDF>
  </metadata>
  <g
     id="layer1"
     inkscape:groupmode="layer"
     inkscape:label="Warstwa 1">
    <path
       d="M 39.234349,18.735265 199.03043,76.896416 Z M 212.59116,42.631945 108.4909,328.64461 187.40866,357.36791 291.50892,71.355824 Z m -11.62121,280.471515 159.79608,58.16116 z"
       style="fill:none;fill-opacity:1;stroke:#000000;stroke-width:4.4;stroke-miterlimit:4;stroke-dasharray:none;stroke-opacity:1;paint-order:normal"
       id="rect1407" />
    <path
       transform="matrix(1.0336619,0.37622216,-0.37622216,1.0336619,68.512048,-81.976808)"
       clip-path="url(#clipPath1569)"
       id="path1412"
       d="M 49.187507,200 H 350.81249"
       style="fill:none;stroke:#000000;stroke-width:2;stroke-linecap:butt;stroke-linejoin:miter;stroke-miterlimit:4;stroke-dasharray:none;stroke-opacity:1;paint-order:markers stroke fill" />
  </g>
</svg>
