<?xml version="1.0" encoding="UTF-8" standalone="no"?>
<!-- Created with Inkscape (http://www.inkscape.org/) -->

<svg
   width="48"
   height="48"
   viewBox="0 0 48 48"
   version="1.1"
   id="svg1"
   inkscape:version="1.3 (0e150ed6c4, 2023-07-21)"
   sodipodi:docname="zLogo.svg"
   xmlns:inkscape="http://www.inkscape.org/namespaces/inkscape"
   xmlns:sodipodi="http://sodipodi.sourceforge.net/DTD/sodipodi-0.dtd"
   xmlns="http://www.w3.org/2000/svg"
   xmlns:svg="http://www.w3.org/2000/svg">
  <sodipodi:namedview
     id="namedview1"
     pagecolor="#505050"
     bordercolor="#eeeeee"
     borderopacity="1"
     inkscape:showpageshadow="0"
     inkscape:pageopacity="0"
     inkscape:pagecheckerboard="0"
     inkscape:deskcolor="#505050"
     inkscape:document-units="px"
     inkscape:zoom="8"
     inkscape:cx="4.125"
     inkscape:cy="23.8125"
     inkscape:window-width="1920"
     inkscape:window-height="1019"
     inkscape:window-x="0"
     inkscape:window-y="0"
     inkscape:window-maximized="1"
     inkscape:current-layer="g25" />
  <defs
     id="defs1" />
  <g
     inkscape:label="Layer 1"
     inkscape:groupmode="layer"
     id="layer1">
    <g
       id="g25"
       transform="translate(47.688533,-1.4228384)"
       style="fill:#ff7c0c;fill-opacity:1;stroke-width:0.2;stroke-dasharray:none;stroke:#ffffff;stroke-opacity:1">
      <path
         id="path24"
         style="fill:#0080fd;fill-opacity:1;stroke-width:0.2;stroke-dasharray:none;stroke:#ffffff;stroke-opacity:1;stroke-miterlimit:7.6"
         d="M 14 14 L 14 24 A 9.999999 9.999999 0 0 0 14 24.03125 A 9.999999 9.999999 0 0 0 14.056641 24.787109 A 9.999999 9.999999 0 0 0 14.103516 25.4375 A 9.999999 9.999999 0 0 0 14.25 26.105469 A 9.999999 9.999999 0 0 0 14.410156 26.830078 A 9.999999 9.999999 0 0 0 14.658203 27.498047 A 9.999999 9.999999 0 0 0 14.910156 28.164062 A 9.999999 9.999999 0 0 0 15.542969 29.326172 A 9.999999 9.999999 0 0 0 15.587891 29.40625 A 9.999999 9.999999 0 0 0 16.259766 30.302734 A 9.999999 9.999999 0 0 0 16.447266 30.552734 A 9.999999 9.999999 0 0 0 16.957031 31.0625 A 9.999999 9.999999 0 0 0 17.458984 31.5625 A 9.999999 9.999999 0 0 0 17.925781 31.912109 A 9.999999 9.999999 0 0 0 18.601562 32.416016 A 9.999999 9.999999 0 0 0 19.345703 32.822266 A 9.999999 9.999999 0 0 0 19.845703 33.095703 A 9.999999 9.999999 0 0 0 20.390625 33.298828 A 9.999999 9.999999 0 0 0 21.1875 33.595703 A 9.999999 9.999999 0 0 0 22.576172 33.898438 A 9.999999 9.999999 0 0 0 24 34 A 9.999999 9.999999 0 0 0 25.259766 33.917969 A 9.999999 9.999999 0 0 0 25.300781 33.912109 A 9.999999 9.999999 0 0 0 26.537109 33.671875 A 9.999999 9.999999 0 0 0 26.544922 33.669922 A 9.999999 9.999999 0 0 0 26.556641 33.666016 A 9.999999 9.999999 0 0 0 27.732422 33.275391 A 9.999999 9.999999 0 0 0 27.785156 33.253906 A 9.999999 9.999999 0 0 0 28.890625 32.71875 A 9.999999 9.999999 0 0 0 28.953125 32.683594 A 9.999999 9.999999 0 0 0 29.998047 32 A 9.999999 9.999999 0 0 0 30 31.998047 L 30 34 L 34 34 L 34 24 A 9.999999 9.999999 0 0 0 34 23.998047 A 9.999999 9.999999 0 0 0 34 23.996094 A 9.999999 9.999999 0 0 0 34 23.994141 A 9.999999 9.999999 0 0 0 34 23.992188 A 9.999999 9.999999 0 0 0 34 23.990234 A 9.999999 9.999999 0 0 0 34 23.988281 A 9.999999 9.999999 0 0 0 34 23.986328 A 9.999999 9.999999 0 0 0 34 23.984375 A 9.999999 9.999999 0 0 0 34 23.982422 A 9.999999 9.999999 0 0 0 34 23.980469 A 9.999999 9.999999 0 0 0 34 23.978516 A 9.999999 9.999999 0 0 0 34 23.976562 A 9.999999 9.999999 0 0 0 34 23.974609 A 9.999999 9.999999 0 0 0 34 23.972656 A 9.999999 9.999999 0 0 0 34 23.970703 A 9.999999 9.999999 0 0 0 34 23.96875 A 9.999999 9.999999 0 0 0 33.998047 23.953125 A 9.999999 9.999999 0 0 0 33.894531 22.550781 A 9.999999 9.999999 0 0 0 33.894531 22.548828 A 9.999999 9.999999 0 0 0 33.591797 21.171875 A 9.999999 9.999999 0 0 0 33.587891 21.158203 A 9.999999 9.999999 0 0 0 33.583984 21.150391 A 9.999999 9.999999 0 0 0 33.101562 19.865234 A 9.999999 9.999999 0 0 0 33.072266 19.798828 A 9.999999 9.999999 0 0 0 32.425781 18.619141 A 9.999999 9.999999 0 0 0 32.378906 18.544922 A 9.999999 9.999999 0 0 0 31.570312 17.470703 A 9.999999 9.999999 0 0 0 31.521484 17.414062 A 9.999999 9.999999 0 0 0 30.558594 16.455078 A 9.999999 9.999999 0 0 0 30.513672 16.416016 A 9.999999 9.999999 0 0 0 29.414062 15.595703 A 9.999999 9.999999 0 0 0 29.373047 15.570312 A 9.999999 9.999999 0 0 0 28.179688 14.917969 A 9.999999 9.999999 0 0 0 28.099609 14.882812 A 9.999999 9.999999 0 0 0 26.818359 14.40625 A 9.999999 9.999999 0 0 0 26.8125 14.404297 A 9.999999 9.999999 0 0 0 26.804688 14.402344 A 9.999999 9.999999 0 0 0 25.421875 14.101562 A 9.999999 9.999999 0 0 0 25.419922 14.101562 A 9.999999 9.999999 0 0 0 25.416016 14.101562 A 9.999999 9.999999 0 0 0 24 14 A 9.999999 9.999999 0 0 0 22.65625 14.095703 A 9.999999 9.999999 0 0 0 22.134766 14.197266 A 9.999999 9.999999 0 0 0 21.324219 14.373047 A 9.999999 9.999999 0 0 0 20.789062 14.550781 A 9.999999 9.999999 0 0 0 20.029297 14.835938 A 9.999999 9.999999 0 0 0 19.521484 15.082031 A 9.999999 9.999999 0 0 0 18.824219 15.462891 A 9.999999 9.999999 0 0 0 18.326172 15.789062 A 9.999999 9.999999 0 0 0 18 16.001953 L 18 14 L 14 14 z M 24 18.199219 A 5.7999992 5.7999992 0 0 1 29.800781 24 A 5.7999992 5.7999992 0 0 1 24 29.800781 A 5.7999992 5.7999992 0 0 1 18.199219 24 A 5.7999992 5.7999992 0 0 1 18.310547 22.869141 A 5.7999992 5.7999992 0 0 1 24 18.199219 z "
         transform="translate(-47.688533,1.4228384)" />
      <rect
         style="fill:#0080fd;fill-opacity:1;stroke:#ffffff;stroke-width:0.2;stroke-dasharray:none;stroke-opacity:1"
         id="rect8-7"
         width="22.410124"
         height="4.0101233"
         x="-33.075424"
         y="41.939777" />
      <rect
         style="fill:#0080fd;fill-opacity:1;stroke:#ffffff;stroke-width:0.2;stroke-dasharray:none;stroke-opacity:1"
         id="rect8-7-2"
         width="22.410124"
         height="4.0101233"
         x="-36.712421"
         y="4.8957782" />
      <rect
         style="fill:#0080fd;fill-opacity:1;stroke-width:0.2;stroke-dasharray:none;stroke:#ffffff;stroke-opacity:1"
         id="rect7"
         width="4"
         height="45"
         x="5.8033023"
         y="-56.361004"
         transform="rotate(-150)" />
    </g>
  </g>
</svg>
